<svg width="20" height="20" viewBox="0 0 20 20" fill="none" xmlns="http://www.w3.org/2000/svg">
<circle cx="10" cy="10" r="10" fill="#5C6BC0"/>
<path d="M9.80222 5.75354L7.07722 10.5285C6.97398 10.7052 6.97428 10.9238 7.07801 11.1001C7.18174 11.2765 7.37269 11.383 7.57722 11.3785H9.00722C9.19109 11.3772 9.36788 11.4493 9.49836 11.5789C9.62885 11.7084 9.70223 11.8847 9.70222 12.0685V13.8735C9.70392 14.0928 9.84829 14.2854 10.0583 14.3485C10.2683 14.4116 10.4949 14.3306 10.6172 14.1485L13.2572 10.1885C13.3728 10.0143 13.3837 9.79081 13.2856 9.60617C13.1875 9.42153 12.9963 9.30539 12.7872 9.30354H11.4272C11.0461 9.30354 10.7372 8.99462 10.7372 8.61354V6.00354C10.7388 5.77585 10.5864 5.57583 10.3664 5.51702C10.1464 5.4582 9.91448 5.55544 9.80222 5.75354Z" fill="#EFF0F9"/>
</svg>
